<mxfile host="app.diagrams.net" modified="2024-01-10T13:57:29.983Z" agent="Mozilla/5.0 (X11; Linux x86_64) AppleWebKit/537.36 (KHTML, like Gecko) Chrome/119.0.0.0 Safari/537.36" etag="IYVjmlobKaW49kvEyjiO" version="22.1.18" type="github">
  <diagram name="Page-1" id="9hN4V_HeabXP2wLRV0ID">
    <mxGraphModel dx="1434" dy="758" grid="1" gridSize="10" guides="1" tooltips="1" connect="1" arrows="1" fold="1" page="1" pageScale="1" pageWidth="850" pageHeight="1100" math="0" shadow="0">
      <root>
        <mxCell id="0" />
        <mxCell id="1" parent="0" />
        <mxCell id="KA2QMkhxZiAQUd4U_SZC-1" value="" style="shape=actor;whiteSpace=wrap;html=1;" vertex="1" parent="1">
          <mxGeometry x="20" y="260" width="90" height="60" as="geometry" />
        </mxCell>
        <mxCell id="KA2QMkhxZiAQUd4U_SZC-4" value="User" style="text;html=1;strokeColor=none;fillColor=none;align=center;verticalAlign=middle;whiteSpace=wrap;rounded=0;" vertex="1" parent="1">
          <mxGeometry x="50" y="340" width="60" height="30" as="geometry" />
        </mxCell>
        <mxCell id="KA2QMkhxZiAQUd4U_SZC-9" style="edgeStyle=orthogonalEdgeStyle;rounded=0;orthogonalLoop=1;jettySize=auto;html=1;" edge="1" parent="1" source="KA2QMkhxZiAQUd4U_SZC-5" target="KA2QMkhxZiAQUd4U_SZC-8">
          <mxGeometry relative="1" as="geometry" />
        </mxCell>
        <mxCell id="KA2QMkhxZiAQUd4U_SZC-5" value="" style="image;points=[];aspect=fixed;html=1;align=center;shadow=0;dashed=0;image=img/lib/allied_telesis/computer_and_terminals/Smartphone.svg;" vertex="1" parent="1">
          <mxGeometry x="230" y="260" width="47.4" height="103.42" as="geometry" />
        </mxCell>
        <mxCell id="KA2QMkhxZiAQUd4U_SZC-6" style="edgeStyle=orthogonalEdgeStyle;rounded=0;orthogonalLoop=1;jettySize=auto;html=1;exitX=1;exitY=0.75;exitDx=0;exitDy=0;entryX=-0.063;entryY=0.454;entryDx=0;entryDy=0;entryPerimeter=0;" edge="1" parent="1" source="KA2QMkhxZiAQUd4U_SZC-1" target="KA2QMkhxZiAQUd4U_SZC-5">
          <mxGeometry relative="1" as="geometry" />
        </mxCell>
        <mxCell id="KA2QMkhxZiAQUd4U_SZC-7" value="Coinx App" style="text;html=1;strokeColor=none;fillColor=none;align=center;verticalAlign=middle;whiteSpace=wrap;rounded=0;" vertex="1" parent="1">
          <mxGeometry x="217.4" y="370" width="60" height="30" as="geometry" />
        </mxCell>
        <mxCell id="KA2QMkhxZiAQUd4U_SZC-12" style="edgeStyle=orthogonalEdgeStyle;rounded=0;orthogonalLoop=1;jettySize=auto;html=1;" edge="1" parent="1" source="KA2QMkhxZiAQUd4U_SZC-8" target="KA2QMkhxZiAQUd4U_SZC-11">
          <mxGeometry relative="1" as="geometry" />
        </mxCell>
        <mxCell id="KA2QMkhxZiAQUd4U_SZC-8" value="" style="ellipse;shape=cloud;whiteSpace=wrap;html=1;" vertex="1" parent="1">
          <mxGeometry x="330" y="90" width="120" height="80" as="geometry" />
        </mxCell>
        <mxCell id="KA2QMkhxZiAQUd4U_SZC-10" value="Cloud Flare DNS" style="text;html=1;strokeColor=none;fillColor=none;align=center;verticalAlign=middle;whiteSpace=wrap;rounded=0;" vertex="1" parent="1">
          <mxGeometry x="350" y="50" width="60" height="30" as="geometry" />
        </mxCell>
        <mxCell id="KA2QMkhxZiAQUd4U_SZC-15" style="edgeStyle=orthogonalEdgeStyle;rounded=0;orthogonalLoop=1;jettySize=auto;html=1;" edge="1" parent="1" source="KA2QMkhxZiAQUd4U_SZC-11" target="KA2QMkhxZiAQUd4U_SZC-14">
          <mxGeometry relative="1" as="geometry" />
        </mxCell>
        <mxCell id="KA2QMkhxZiAQUd4U_SZC-11" value="" style="image;html=1;image=img/lib/clip_art/computers/Server_Rack_Partial_128x128.png" vertex="1" parent="1">
          <mxGeometry x="570" y="90" width="80" height="80" as="geometry" />
        </mxCell>
        <mxCell id="KA2QMkhxZiAQUd4U_SZC-13" value="Nginx Proxy" style="text;html=1;strokeColor=none;fillColor=none;align=center;verticalAlign=middle;whiteSpace=wrap;rounded=0;" vertex="1" parent="1">
          <mxGeometry x="570" y="40" width="60" height="30" as="geometry" />
        </mxCell>
        <mxCell id="KA2QMkhxZiAQUd4U_SZC-24" style="edgeStyle=orthogonalEdgeStyle;rounded=0;orthogonalLoop=1;jettySize=auto;html=1;" edge="1" parent="1" source="KA2QMkhxZiAQUd4U_SZC-14" target="KA2QMkhxZiAQUd4U_SZC-23">
          <mxGeometry relative="1" as="geometry" />
        </mxCell>
        <mxCell id="KA2QMkhxZiAQUd4U_SZC-27" style="edgeStyle=orthogonalEdgeStyle;rounded=0;orthogonalLoop=1;jettySize=auto;html=1;" edge="1" parent="1" source="KA2QMkhxZiAQUd4U_SZC-14" target="KA2QMkhxZiAQUd4U_SZC-26">
          <mxGeometry relative="1" as="geometry" />
        </mxCell>
        <mxCell id="KA2QMkhxZiAQUd4U_SZC-14" value="" style="sketch=0;outlineConnect=0;fontColor=#232F3E;gradientColor=none;fillColor=#ED7100;strokeColor=none;dashed=0;verticalLabelPosition=bottom;verticalAlign=top;align=center;html=1;fontSize=12;fontStyle=0;aspect=fixed;pointerEvents=1;shape=mxgraph.aws4.ec2_aws_microservice_extractor_for_net;" vertex="1" parent="1">
          <mxGeometry x="740" y="110" width="60" height="60" as="geometry" />
        </mxCell>
        <mxCell id="KA2QMkhxZiAQUd4U_SZC-16" value="Coinx Ktor&amp;nbsp; Server" style="text;html=1;strokeColor=none;fillColor=none;align=center;verticalAlign=middle;whiteSpace=wrap;rounded=0;" vertex="1" parent="1">
          <mxGeometry x="720" y="50" width="60" height="30" as="geometry" />
        </mxCell>
        <mxCell id="KA2QMkhxZiAQUd4U_SZC-17" value="" style="sketch=0;points=[[0,0,0],[0.25,0,0],[0.5,0,0],[0.75,0,0],[1,0,0],[0,1,0],[0.25,1,0],[0.5,1,0],[0.75,1,0],[1,1,0],[0,0.25,0],[0,0.5,0],[0,0.75,0],[1,0.25,0],[1,0.5,0],[1,0.75,0]];outlineConnect=0;fontColor=#232F3E;fillColor=#8C4FFF;strokeColor=#ffffff;dashed=0;verticalLabelPosition=bottom;verticalAlign=top;align=center;html=1;fontSize=12;fontStyle=0;aspect=fixed;shape=mxgraph.aws4.resourceIcon;resIcon=mxgraph.aws4.managed_streaming_for_kafka;" vertex="1" parent="1">
          <mxGeometry x="751" y="380" width="78" height="78" as="geometry" />
        </mxCell>
        <mxCell id="KA2QMkhxZiAQUd4U_SZC-18" style="edgeStyle=orthogonalEdgeStyle;rounded=0;orthogonalLoop=1;jettySize=auto;html=1;entryX=0.5;entryY=0;entryDx=0;entryDy=0;entryPerimeter=0;" edge="1" parent="1" source="KA2QMkhxZiAQUd4U_SZC-14" target="KA2QMkhxZiAQUd4U_SZC-17">
          <mxGeometry relative="1" as="geometry" />
        </mxCell>
        <mxCell id="KA2QMkhxZiAQUd4U_SZC-19" value="" style="image;sketch=0;aspect=fixed;html=1;points=[];align=center;fontSize=12;image=img/lib/mscae/Cache_Redis_Product.svg;" vertex="1" parent="1">
          <mxGeometry x="760" y="236" width="50" height="42" as="geometry" />
        </mxCell>
        <mxCell id="KA2QMkhxZiAQUd4U_SZC-20" style="edgeStyle=orthogonalEdgeStyle;rounded=0;orthogonalLoop=1;jettySize=auto;html=1;entryX=0.56;entryY=-0.048;entryDx=0;entryDy=0;entryPerimeter=0;" edge="1" parent="1" source="KA2QMkhxZiAQUd4U_SZC-14" target="KA2QMkhxZiAQUd4U_SZC-19">
          <mxGeometry relative="1" as="geometry" />
        </mxCell>
        <mxCell id="KA2QMkhxZiAQUd4U_SZC-21" value="Kafka" style="text;html=1;strokeColor=none;fillColor=none;align=center;verticalAlign=middle;whiteSpace=wrap;rounded=0;" vertex="1" parent="1">
          <mxGeometry x="769" y="480" width="60" height="30" as="geometry" />
        </mxCell>
        <mxCell id="KA2QMkhxZiAQUd4U_SZC-22" value="Redis" style="text;html=1;strokeColor=none;fillColor=none;align=center;verticalAlign=middle;whiteSpace=wrap;rounded=0;" vertex="1" parent="1">
          <mxGeometry x="760" y="290" width="60" height="30" as="geometry" />
        </mxCell>
        <mxCell id="KA2QMkhxZiAQUd4U_SZC-23" value="" style="dashed=0;outlineConnect=0;html=1;align=center;labelPosition=center;verticalLabelPosition=bottom;verticalAlign=top;shape=mxgraph.webicons.mongodb;gradientColor=#DFDEDE" vertex="1" parent="1">
          <mxGeometry x="748" y="590" width="102.4" height="102.4" as="geometry" />
        </mxCell>
        <mxCell id="KA2QMkhxZiAQUd4U_SZC-25" value="Mongo DB Database Cloud" style="text;html=1;strokeColor=none;fillColor=none;align=center;verticalAlign=middle;whiteSpace=wrap;rounded=0;" vertex="1" parent="1">
          <mxGeometry x="760" y="730" width="60" height="30" as="geometry" />
        </mxCell>
        <mxCell id="KA2QMkhxZiAQUd4U_SZC-26" value="" style="image;aspect=fixed;html=1;points=[];align=center;fontSize=12;image=img/lib/azure2/integration/API_Management_Services.svg;" vertex="1" parent="1">
          <mxGeometry x="630" y="380" width="65" height="60" as="geometry" />
        </mxCell>
        <mxCell id="KA2QMkhxZiAQUd4U_SZC-28" value="Coin market cap API" style="text;html=1;strokeColor=none;fillColor=none;align=center;verticalAlign=middle;whiteSpace=wrap;rounded=0;" vertex="1" parent="1">
          <mxGeometry x="622.5" y="458" width="80" height="40" as="geometry" />
        </mxCell>
      </root>
    </mxGraphModel>
  </diagram>
</mxfile>
